<?xml version="1.0" encoding="UTF-8" standalone="no"?>
<!DOCTYPE svg PUBLIC "-//W3C//DTD SVG 1.1//EN" "http://www.w3.org/Graphics/SVG/1.1/DTD/svg11.dtd">
<svg width="100%" height="100%" viewBox="0 0 99 99" version="1.1" xmlns="http://www.w3.org/2000/svg" xmlns:xlink="http://www.w3.org/1999/xlink" xml:space="preserve" xmlns:serif="http://www.serif.com/" style="fill-rule:evenodd;clip-rule:evenodd;stroke-linejoin:round;stroke-miterlimit:2;">
    <g transform="matrix(1,0,0,1,-1971.900528,-158.083021)">
        <g id="Mesa-de-trabajo3" serif:id="Mesa de trabajo3" transform="matrix(0.114012,0,0,0.112875,1752.085158,158.083021)">
            <rect x="1928" y="0" width="864" height="872" style="fill:none;"/>
            <g transform="matrix(17.541994,0,0,17.718789,1939.230118,0.276793)">
                <path d="M47.663,24.612C47.663,37.774 36.993,48.443 23.831,48.443C10.669,48.443 0,37.774 0,24.612C0,11.45 10.669,0.78 23.831,0.78C36.993,0.78 47.663,11.45 47.663,24.612Z" style="fill:url(#_Linear1);"/>
            </g>
            <g transform="matrix(17.541994,0,0,17.718789,1939.230118,0.276793)">
                <path d="M26.467,39.79L26.467,26.509L30.895,26.509L31.738,21.015L26.467,21.015L26.467,17.45C26.467,15.947 27.203,14.482 29.564,14.482L31.96,14.482L31.96,9.805C31.96,9.805 29.785,9.434 27.706,9.434C23.365,9.434 20.527,12.065 20.527,16.828L20.527,21.015L15.702,21.015L15.702,26.509L20.527,26.509L20.527,39.79L26.467,39.79Z" style="fill:white;fill-rule:nonzero;"/>
            </g>
        </g>
    </g>
    <defs>
        <linearGradient id="_Linear1" x1="0" y1="0" x2="1" y2="0" gradientUnits="userSpaceOnUse" gradientTransform="matrix(33.702801,33.702801,-33.702801,33.702801,6.98008,7.760094)"><stop offset="0" style="stop-color:rgb(52,114,185);stop-opacity:1"/><stop offset="0.54" style="stop-color:rgb(44,93,171);stop-opacity:1"/><stop offset="1" style="stop-color:rgb(38,59,151);stop-opacity:1"/></linearGradient>
    </defs>
</svg>
