<?xml version="1.0" encoding="UTF-8" standalone="no"?>
<!DOCTYPE svg PUBLIC "-//W3C//DTD SVG 1.1//EN" "http://www.w3.org/Graphics/SVG/1.1/DTD/svg11.dtd">
<svg width="100%" height="100%" viewBox="0 0 98 97" version="1.1" xmlns="http://www.w3.org/2000/svg" xmlns:xlink="http://www.w3.org/1999/xlink" xml:space="preserve" xmlns:serif="http://www.serif.com/" style="fill-rule:evenodd;clip-rule:evenodd;stroke-linejoin:round;stroke-miterlimit:2;">
    <g transform="matrix(1,0,0,1,-1844.982141,-160.747148)">
        <g id="Mesa-de-trabajo2" serif:id="Mesa de trabajo2" transform="matrix(0.112325,0,0,0.110525,1736.700908,160.747148)">
            <rect x="964" y="0" width="864" height="872" style="fill:none;"/>
            <g transform="matrix(17.805486,0,0,18.095532,-2327.983951,-10.165351)">
                <path d="M232.962,24.612C232.962,37.774 222.292,48.443 209.13,48.443C195.969,48.443 185.299,37.774 185.299,24.612C185.299,11.45 195.969,0.78 209.13,0.78C222.292,0.78 232.962,11.45 232.962,24.612Z" style="fill:url(#_Linear1);"/>
            </g>
            <g transform="matrix(17.805486,0,0,18.095532,-2327.983951,-10.165351)">
                <path d="M215.697,16.639C214.894,16.639 214.243,17.29 214.243,18.093C214.243,18.896 214.894,19.547 215.697,19.547C216.5,19.547 217.151,18.896 217.151,18.093C217.151,17.29 216.5,16.639 215.697,16.639Z" style="fill:white;fill-rule:nonzero;"/>
            </g>
            <g transform="matrix(17.805486,0,0,18.095532,-2327.983951,-10.165351)">
                <path d="M209.232,28.525C207.075,28.525 205.319,26.77 205.319,24.612C205.319,22.454 207.075,20.699 209.232,20.699C211.39,20.699 213.145,22.454 213.145,24.612C213.145,26.77 211.39,28.525 209.232,28.525ZM209.232,18.504C205.864,18.504 203.124,21.244 203.124,24.612C203.124,27.98 205.864,30.72 209.232,30.72C212.6,30.72 215.341,27.98 215.341,24.612C215.341,21.244 212.6,18.504 209.232,18.504Z" style="fill:white;fill-rule:nonzero;"/>
            </g>
            <g transform="matrix(17.805486,0,0,18.095532,-2327.983951,-10.165351)">
                <path d="M204.179,14.544C201.357,14.544 199.062,16.839 199.062,19.66L199.062,29.564C199.062,32.385 201.357,34.68 204.179,34.68L214.082,34.68C216.903,34.68 219.199,32.385 219.199,29.564L219.199,19.66C219.199,16.839 216.903,14.544 214.082,14.544L204.179,14.544ZM214.082,37.014L204.179,37.014C200.071,37.014 196.729,33.672 196.729,29.564L196.729,19.66C196.729,15.552 200.071,12.21 204.179,12.21L214.082,12.21C218.19,12.21 221.532,15.552 221.532,19.66L221.532,29.564C221.532,33.672 218.19,37.014 214.082,37.014Z" style="fill:white;fill-rule:nonzero;"/>
            </g>
        </g>
    </g>
    <defs>
        <linearGradient id="_Linear1" x1="0" y1="0" x2="1" y2="0" gradientUnits="userSpaceOnUse" gradientTransform="matrix(33.702801,33.702801,-33.702801,33.702801,192.279,7.760094)"><stop offset="0" style="stop-color:rgb(253,222,132);stop-opacity:1"/><stop offset="0.21" style="stop-color:rgb(252,182,70);stop-opacity:1"/><stop offset="0.3" style="stop-color:rgb(245,131,96);stop-opacity:1"/><stop offset="0.38" style="stop-color:rgb(240,90,125);stop-opacity:1"/><stop offset="0.5" style="stop-color:rgb(238,73,154);stop-opacity:1"/><stop offset="0.53" style="stop-color:rgb(238,73,154);stop-opacity:1"/><stop offset="0.63" style="stop-color:rgb(168,79,158);stop-opacity:1"/><stop offset="0.74" style="stop-color:rgb(118,80,161);stop-opacity:1"/><stop offset="1" style="stop-color:rgb(75,90,168);stop-opacity:1"/></linearGradient>
    </defs>
</svg>
