<?xml version="1.0" encoding="UTF-8" standalone="no"?>
<!DOCTYPE svg PUBLIC "-//W3C//DTD SVG 1.1//EN" "http://www.w3.org/Graphics/SVG/1.1/DTD/svg11.dtd">
<svg width="100%" height="100%" viewBox="0 0 97 97" version="1.1" xmlns="http://www.w3.org/2000/svg" xmlns:xlink="http://www.w3.org/1999/xlink" xml:space="preserve" xmlns:serif="http://www.serif.com/" style="fill-rule:evenodd;clip-rule:evenodd;stroke-linejoin:round;stroke-miterlimit:2;">
    <g transform="matrix(1,0,0,1,-2221.887935,-160.332208)">
        <g id="Mesa-de-trabajo5" serif:id="Mesa de trabajo5" transform="matrix(0.11183,0,0,0.110603,1790.672129,160.332208)">
            <rect x="3856" y="0" width="864" height="872" style="fill:none;"/>
            <g transform="matrix(17.884317,0,0,18.082648,-1113.538217,-10.54188)">
                <path d="M325.611,24.612C325.611,37.774 314.942,48.443 301.78,48.443C288.618,48.443 277.949,37.774 277.949,24.612C277.949,11.45 288.618,0.78 301.78,0.78C314.942,0.78 325.611,11.45 325.611,24.612Z" style="fill:url(#_Linear1);"/>
            </g>
            <g transform="matrix(17.884317,0,0,18.082648,-1113.538217,-10.54188)">
                <path d="M295.645,32.121C295.151,31.473 294.883,30.68 294.885,29.866C294.885,27.809 296.553,26.141 298.611,26.141C298.995,26.141 299.376,26.2 299.742,26.315L299.742,21.812C299.315,21.753 298.883,21.728 298.452,21.738L298.452,25.243C298.087,25.127 297.705,25.068 297.321,25.069C295.263,25.069 293.595,26.736 293.595,28.793C293.595,30.248 294.429,31.507 295.645,32.121ZM308.362,16.444C307.478,15.478 306.897,14.23 306.771,12.849L306.771,12.283L305.549,12.283C305.856,14.037 306.906,15.536 308.362,16.444ZM306.771,20.889C308.502,22.125 310.623,22.853 312.913,22.853L312.913,18.448C312.48,18.448 312.048,18.403 311.624,18.313L311.624,21.781C309.333,21.781 307.213,21.053 305.481,19.816L305.481,28.806C305.481,33.303 301.834,36.949 297.334,36.949C295.656,36.949 294.095,36.441 292.799,35.571C294.278,37.083 296.341,38.021 298.624,38.021C303.124,38.021 306.771,34.376 306.771,29.878L306.771,20.889Z" style="fill:rgb(238,52,95);"/>
            </g>
            <g transform="matrix(17.884317,0,0,18.082648,-1113.538217,-10.54188)">
                <path d="M305.481,19.816C307.213,21.053 309.333,21.781 311.624,21.781L311.624,18.313C310.345,18.041 309.213,17.373 308.362,16.444C306.906,15.536 305.856,14.037 305.549,12.283L302.338,12.283L302.338,29.878C302.331,31.929 300.665,33.59 298.611,33.59C297.401,33.59 296.326,33.014 295.645,32.121C294.428,31.507 293.595,30.248 293.595,28.793C293.595,26.736 295.263,25.069 297.321,25.069C297.716,25.069 298.096,25.13 298.452,25.243L298.452,21.738C294.032,21.829 290.477,25.439 290.477,29.878C290.477,32.095 291.362,34.104 292.799,35.572C294.095,36.441 295.656,36.949 297.334,36.949C301.834,36.949 305.481,33.303 305.481,28.806L305.481,19.816Z" style="fill:white;"/>
            </g>
            <g transform="matrix(17.884317,0,0,18.082648,-1113.538217,-10.54188)">
                <path d="M298.452,21.738L298.452,20.739C298.082,20.689 297.708,20.663 297.335,20.664C292.835,20.663 289.187,24.309 289.187,28.806C289.187,31.625 290.621,34.11 292.799,35.571C291.363,34.104 290.477,32.094 290.477,29.878C290.477,25.439 294.032,21.829 298.452,21.738ZM305.549,12.283C305.519,12.115 305.497,11.947 305.481,11.777L305.481,11.211L301.048,11.211L301.048,28.806C301.041,30.857 299.375,32.518 297.321,32.518C296.718,32.518 296.149,32.375 295.645,32.121C296.326,33.014 297.401,33.59 298.611,33.59C300.665,33.59 302.331,31.929 302.338,29.878L302.338,12.283L305.549,12.283ZM311.624,18.313L311.624,17.375C310.471,17.377 309.34,17.054 308.362,16.444C309.228,17.391 310.368,18.045 311.624,18.313Z" style="fill:rgb(47,191,199);"/>
            </g>
        </g>
    </g>
    <defs>
        <linearGradient id="_Linear1" x1="0" y1="0" x2="1" y2="0" gradientUnits="userSpaceOnUse" gradientTransform="matrix(33.702801,33.702801,-33.702801,33.702801,284.929,7.760094)"><stop offset="0" style="stop-color:rgb(27,19,72);stop-opacity:1"/><stop offset="0.62" style="stop-color:rgb(0,0,22);stop-opacity:1"/><stop offset="1" style="stop-color:black;stop-opacity:1"/></linearGradient>
    </defs>
</svg>
