<?xml version="1.0" encoding="UTF-8" standalone="no"?>
<!DOCTYPE svg PUBLIC "-//W3C//DTD SVG 1.1//EN" "http://www.w3.org/Graphics/SVG/1.1/DTD/svg11.dtd">
<svg width="100%" height="100%" viewBox="0 0 97 97" version="1.1" xmlns="http://www.w3.org/2000/svg" xmlns:xlink="http://www.w3.org/1999/xlink" xml:space="preserve" xmlns:serif="http://www.serif.com/" style="fill-rule:evenodd;clip-rule:evenodd;stroke-linejoin:round;stroke-miterlimit:2;">
    <g transform="matrix(1,0,0,1,-2101.947705,-159.674262)">
        <g id="Mesa-de-trabajo4" serif:id="Mesa de trabajo4" transform="matrix(0.111711,0,0,0.110595,1778.879021,159.674262)">
            <rect x="2892" y="0" width="864" height="872" style="fill:none;"/>
            <g transform="matrix(32.287298,0,0,32.613025,-3428.258823,-2544.810152)">
                <path d="M203.803,99.424L204.22,99.672C205.749,100.583 207.489,101.065 209.25,101.065C214.684,101.065 219.105,96.645 219.105,91.211C219.105,85.777 214.684,81.357 209.25,81.357C203.817,81.357 199.396,85.777 199.396,91.211C199.396,93.005 199.894,94.772 200.837,96.32L201.093,96.74L200.108,100.414L203.803,99.424ZM196.86,103.661L198.623,97.081C197.625,95.279 197.099,93.26 197.099,91.211C197.099,84.511 202.55,79.06 209.25,79.06C215.95,79.06 221.401,84.511 221.401,91.211C221.401,97.911 215.95,103.362 209.25,103.362C207.239,103.362 205.252,102.854 203.474,101.889L196.86,103.661Z" style="fill:white;fill-rule:nonzero;"/>
            </g>
            <g transform="matrix(32.287298,0,0,32.613025,-3428.258823,-2544.810152)">
                <path d="M213.77,92.901C213.27,92.602 212.62,92.268 212.03,92.509C211.578,92.694 211.29,93.401 210.997,93.763C210.846,93.948 210.667,93.977 210.436,93.884C208.739,93.208 207.439,92.075 206.503,90.515C206.344,90.272 206.373,90.081 206.564,89.856C206.847,89.523 207.202,89.145 207.278,88.696C207.355,88.247 207.144,87.722 206.959,87.323C206.722,86.812 206.457,86.084 205.945,85.795C205.475,85.529 204.856,85.678 204.437,86.019C203.714,86.608 203.365,87.531 203.375,88.445C203.378,88.705 203.41,88.964 203.471,89.215C203.617,89.818 203.896,90.382 204.209,90.917C204.446,91.321 204.703,91.713 204.98,92.09C205.888,93.323 207.017,94.394 208.324,95.195C208.978,95.595 209.681,95.946 210.41,96.186C211.227,96.456 211.955,96.737 212.837,96.57C213.761,96.394 214.672,95.823 215.039,94.932C215.147,94.669 215.201,94.375 215.141,94.097C215.015,93.521 214.236,93.179 213.77,92.901Z" style="fill:white;"/>
            </g>
        </g>
    </g>
</svg>
